# xmcd
#
# Track frame offsets:
#	150
#	12562
#	25823
#	38980
#	50960
#	65554
#	76992
#	90525
#	100813
#	110203
#	120338
#	132192
#	143427
#	154659
#	164423
#	175177
#	185865
#	195370
#	207441
#	220157
#
# Disc length: 3078 seconds
#
# Revision: 1
# Processed by: cddbd v1.5.2PL0 Copyright (c) Steve Scherf et al.
# Submitted via: audiograbber 1.83.01
#
DISCID=1c0c0414
DTITLE=Various Artist - This is Country Music CD 3
DYEAR=1900
DGENRE=Country
TTITLE0=Lynn Anderson - Stand by your man
TTITLE1=Charlie Rich - The most beautiful girl in the world
TTITLE2=Hank Williams - Hey good lookin'
TTITLE3=Billie Jo Spears - Misty blue
TTITLE4=Don Gibson - I can't stop loving you
TTITLE5=George Jones - Talk back trembling lips
TTITLE6=Kenny Rogers - Ruby don't take your love to town
TTITLE7=Johnny Paycheck - A 11
TTITLE8=Loretta Lynn - Y'all come
TTITLE9=Don Williams - Take my hand for a while
TTITLE10=Anne Murray - The last thing on my mind
TTITLE11=Jim Reeves - Just call me lonesome
TTITLE12=Patsy Cline - That wonderful someone
TTITLE13=Freddy Fender - But i do
TTITLE14=Charley Pride - Oklahoma morning
TTITLE15=Hank Locklin - Crazy over you
TTITLE16=Buck Owens - There goes my love
TTITLE17=Johnny Cash - Goodnight Irene
TTITLE18=Hank Snow - I'm movin'on
TTITLE19=Guy Mitchell - Singin the blues
EXTD=
EXTT0=
EXTT1=
EXTT2=
EXTT3=
EXTT4=
EXTT5=
EXTT6=
EXTT7=
EXTT8=
EXTT9=
EXTT10=
EXTT11=
EXTT12=
EXTT13=
EXTT14=
EXTT15=
EXTT16=
EXTT17=
EXTT18=
EXTT19=
PLAYORDER=
